<svg width="121" height="29" viewBox="0 0 121 29" fill="none" xmlns="http://www.w3.org/2000/svg">
<path d="M0.0610352 22.3582V0.671509H14.8082L14.7771 4.07942H3.07255L4.00395 3.11901L4.035 22.3582H0.0610352Z" fill="#D42216"/>
<path d="M18.063 28.5854C17.2557 28.5854 16.4485 28.4511 15.6413 28.1826C14.8341 27.9141 14.1614 27.5424 13.6233 27.0673L15.1756 24.2171C15.5689 24.5682 16.0139 24.847 16.5106 25.0536C17.0074 25.2601 17.5145 25.3634 18.0319 25.3634C18.7356 25.3634 19.3048 25.1878 19.7395 24.8367C20.1741 24.4856 20.5777 23.8969 20.9503 23.0708L21.9127 20.9021L22.2232 20.4374L28.4946 5.81436H32.2202L24.4585 23.6904C23.9411 24.9296 23.3616 25.9107 22.7199 26.6336C22.099 27.3565 21.3953 27.8625 20.6088 28.1517C19.843 28.4408 18.9943 28.5854 18.063 28.5854ZM21.4781 22.9469L13.9958 5.81436H18.0319L24.117 20.0966L21.4781 22.9469Z" fill="#D42216"/>
<path d="M45.3473 22.5751C44.002 22.5751 42.7704 22.2653 41.6528 21.6457C40.5558 21.026 39.6761 20.0966 39.0138 18.8574C38.3722 17.5975 38.0514 16.0071 38.0514 14.0863C38.0514 12.1448 38.3618 10.5545 38.9828 9.31521C39.6244 8.07597 40.4937 7.15687 41.5907 6.5579C42.6876 5.93828 43.9399 5.62847 45.3473 5.62847C46.9824 5.62847 48.4209 5.97959 49.6628 6.68182C50.9253 7.38406 51.9188 8.36513 52.6432 9.62502C53.3884 10.8849 53.7609 12.372 53.7609 14.0863C53.7609 15.8006 53.3884 17.298 52.6432 18.5785C51.9188 19.8384 50.9253 20.8195 49.6628 21.5217C48.4209 22.224 46.9824 22.5751 45.3473 22.5751ZM36.1575 28.3685V5.81436H39.8521V9.71796L39.7279 14.1173L40.0383 18.5166V28.3685H36.1575ZM44.9127 19.2601C45.8441 19.2601 46.672 19.0536 47.3964 18.6405C48.1415 18.2274 48.7314 17.6285 49.166 16.8436C49.6007 16.0587 49.818 15.1396 49.818 14.0863C49.818 13.0123 49.6007 12.0932 49.166 11.329C48.7314 10.5441 48.1415 9.94516 47.3964 9.53208C46.672 9.119 45.8441 8.91246 44.9127 8.91246C43.9813 8.91246 43.143 9.119 42.3979 9.53208C41.6528 9.94516 41.0629 10.5441 40.6282 11.329C40.1936 12.0932 39.9762 13.0123 39.9762 14.0863C39.9762 15.1396 40.1936 16.0587 40.6282 16.8436C41.0629 17.6285 41.6528 18.2274 42.3979 18.6405C43.143 19.0536 43.9813 19.2601 44.9127 19.2601Z" fill="#D42216"/>
<path d="M58.8652 22.3582V5.81436H62.9323L69.6073 17.5562H67.9929L75.0094 5.81436H78.6418L78.6729 22.3582H75.1646V9.96581L75.7856 10.3686L69.5762 20.6233H67.8997L61.6594 10.0897L62.4045 9.90385V22.3582H58.8652Z" fill="#D42216"/>
<path d="M95.1792 22.3582V19.0123L94.9619 18.2997V12.4443C94.9619 11.3083 94.6204 10.4305 93.9374 9.81091C93.2543 9.17063 92.2195 8.8505 90.8327 8.8505C89.9013 8.8505 88.9803 8.99507 88.0696 9.28423C87.1796 9.57339 86.4241 9.97614 85.8032 10.4925L84.2819 7.67322C85.1719 6.99163 86.2275 6.48561 87.4486 6.15515C88.6905 5.80403 89.9737 5.62847 91.2984 5.62847C93.6993 5.62847 95.5518 6.20678 96.8557 7.36341C98.1804 8.49938 98.8427 10.2653 98.8427 12.6612V22.3582H95.1792ZM89.9634 22.5751C88.7215 22.5751 87.6349 22.3685 86.7035 21.9555C85.7721 21.5217 85.0477 20.9331 84.5303 20.1895C84.0335 19.4253 83.7851 18.5682 83.7851 17.6181C83.7851 16.6887 84.0025 15.8522 84.4371 15.1087C84.8925 14.3651 85.6272 13.7765 86.6414 13.3427C87.6556 12.909 89.001 12.6921 90.6775 12.6921H95.4897V15.2636H90.9569C89.6322 15.2636 88.7422 15.4804 88.2869 15.9142C87.8315 16.3272 87.6039 16.8436 87.6039 17.4632C87.6039 18.1655 87.8833 18.7231 88.4421 19.1362C89.001 19.5493 89.7771 19.7558 90.7706 19.7558C91.7227 19.7558 92.5713 19.5389 93.3164 19.1052C94.0823 18.6715 94.6307 18.0312 94.9619 17.1844L95.6139 19.508C95.2413 20.4787 94.5686 21.2326 93.5958 21.7696C92.6438 22.3066 91.4329 22.5751 89.9634 22.5751Z" fill="#D42216"/>
<path d="M104.887 22.3582V5.81436H108.768V12.5372H117.119V5.81436H121V22.3582H117.119V15.8212H108.768V22.3582H104.887Z" fill="#D42216"/>
</svg>
