<svg width="41" height="40" viewBox="0 0 41 40" fill="none" xmlns="http://www.w3.org/2000/svg">
<path d="M40.358 19.6491L32.3708 6.00878C31.572 4.60527 30.0189 3.77193 28.4215 3.77193H23.3629C23.851 4.56141 24.2503 5.39473 24.561 6.27192L24.6497 6.49122H28.4215C29.0427 6.49122 29.664 6.8421 29.9746 7.36841L37.9619 21.0088C38.2725 21.5351 38.2725 22.2368 37.9619 22.7632L34.5894 28.5526C34.8113 25.4824 33.9238 22.6316 32.1489 20.0439C29.8414 16.6667 28.9096 13.0702 30.0633 9.03508C30.0633 8.99122 30.0633 8.90351 30.0633 8.77193C27.6228 9.64912 25.9365 11.3158 25.0047 13.5965C24.8716 12.1491 24.8272 10.6579 24.6053 9.16668C24.4722 8.24562 24.2503 7.32455 23.9397 6.49122C23.5847 5.52631 23.141 4.60526 22.5641 3.72807C22.1648 3.11403 21.6766 2.54386 21.1442 1.97368C20.3898 1.18421 19.5467 0.570175 18.4817 0C18.5261 0.219298 18.5705 0.35088 18.5705 0.482459C18.7923 1.40351 18.8811 2.36842 18.7036 3.28947C18.6592 3.42105 18.6592 3.59649 18.6148 3.72807C18.393 4.69298 17.9936 5.61403 17.5055 6.49122C17.2836 6.8421 17.0618 7.19299 16.8399 7.54386C15.6418 9.29825 14.355 11.0088 13.2012 12.807C11.4707 15.4825 10.4944 18.3772 10.6719 21.5789C10.805 23.6842 11.3375 25.7017 12.1363 27.6754C12.1806 27.807 12.2694 27.9824 12.3138 28.114C12.2694 28.1579 12.225 28.1579 12.1363 28.2017C9.11884 26.0965 8.40885 22.8509 7.83199 19.4298C7.74324 19.6491 7.6545 19.8246 7.56576 19.9561C6.85577 21.5789 6.41203 23.2895 6.36765 25.0877C6.32328 26.5789 6.45641 27.9386 6.76703 29.2982L2.95086 22.7632C2.64024 22.2368 2.64024 21.5351 2.95086 21.0088L10.9382 7.36841C11.2488 6.8421 11.8256 6.49122 12.4912 6.49122H16.6624L16.8843 6.14035C17.3724 5.30702 17.683 4.51754 17.9049 3.72807H12.5356C10.8938 3.72807 9.38508 4.60527 8.58635 5.96491L0.599048 19.6053C-0.199683 21.0088 -0.199683 22.7193 0.599048 24.1228L8.58635 37.7631C9.38508 39.1666 10.9382 40 12.5356 40H28.4658C30.1077 40 31.6164 39.1228 32.4151 37.7631L40.4024 24.1228C41.1568 22.7632 41.1568 21.0526 40.358 19.6491ZM26.4247 18.2018C26.6022 17.5439 26.9128 16.886 27.1346 16.2719C27.179 16.2719 27.2234 16.2719 27.2677 16.2719C27.3121 16.6228 27.3565 16.9298 27.4453 17.2807C27.7115 18.9035 28.5102 20.3509 29.4421 21.7105C30.2408 22.8947 30.9508 24.1228 31.3058 25.5263C31.7495 27.4123 31.4833 29.2544 30.6845 31.0088C30.6845 31.0526 30.6402 31.0526 30.5071 31.1842C30.6846 29.2544 30.0189 27.7193 28.8652 26.3596C28.4659 25.921 28.1109 25.4386 27.7115 25C26.0697 22.9825 25.7147 20.7018 26.4247 18.2018ZM20.8779 37.3245C21.2329 36.5351 21.2329 35.614 20.8779 34.5614C20.5229 33.5965 19.9461 32.6754 19.3692 31.8421C17.8161 29.6052 16.4849 27.2807 15.7749 24.6052C14.7543 20.7456 15.2868 17.193 17.9049 14.0351C18.4374 13.3772 19.103 12.807 19.6798 12.2369C19.7242 12.2807 19.7686 12.2807 19.8129 12.3245C19.7242 12.5877 19.5911 12.8509 19.5023 13.1579C18.748 15.2193 18.4374 17.3246 19.103 19.4298C19.6355 21.2281 20.7448 22.7193 22.0316 24.079C23.4072 25.5263 24.8272 26.9298 26.2028 28.421C27.2678 29.5614 28.0221 30.921 28.1996 32.5C28.3327 33.6403 28.0665 34.693 27.5784 35.8772C26.5578 32.7193 24.8716 30.2193 21.6766 29.1228C21.721 29.2983 21.8098 29.4737 21.9429 29.6053C22.9191 31.0088 23.7622 32.5 24.1172 34.2105C24.3835 35.307 24.3391 36.3596 24.0285 37.3245H20.8779Z" fill="url(#paint0_linear_406_571)"/>
<defs>
<linearGradient id="paint0_linear_406_571" x1="20.4521" y1="40.0619" x2="20.4521" y2="0.0174144" gradientUnits="userSpaceOnUse">
<stop stop-color="#F4EA61"/>
<stop offset="0.5" stop-color="#E63D11"/>
<stop offset="1" stop-color="#9C1915"/>
</linearGradient>
</defs>
</svg>
