<svg width="179" height="40" viewBox="0 0 179 40" fill="none" xmlns="http://www.w3.org/2000/svg">
<path d="M54.9447 32.3583V10.6716H69.6607L69.6297 14.0795H57.9499L58.8793 13.1191L58.9103 32.3583H54.9447ZM72.9086 38.5855C72.1031 38.5855 71.2976 38.4512 70.4921 38.1827C69.6866 37.9142 69.0154 37.5424 68.4784 37.0674L70.0274 34.2171C70.4198 34.5683 70.8639 34.8471 71.3596 35.0536C71.8553 35.2602 72.3613 35.3634 72.8777 35.3634C73.5799 35.3634 74.1479 35.1879 74.5816 34.8368C75.0154 34.4856 75.4181 33.897 75.7899 33.0708L76.7503 30.9022L77.0601 30.4375L83.3183 15.8144H87.036L79.2907 33.6905C78.7744 34.9297 78.1961 35.9108 77.5558 36.6337C76.9362 37.3565 76.2339 37.8626 75.4491 38.1517C74.6849 38.4409 73.8381 38.5855 72.9086 38.5855ZM76.3166 32.9469L68.8501 15.8144H72.8777L78.9499 30.0967L76.3166 32.9469ZM100.135 32.5751C98.7929 32.5751 97.564 32.2653 96.4486 31.6457C95.354 31.0261 94.4762 30.0967 93.8153 28.8574C93.175 27.5975 92.8548 26.0072 92.8548 24.0863C92.8548 22.1449 93.1647 20.5545 93.7843 19.3153C94.4246 18.076 95.292 17.1569 96.3867 16.558C97.4813 15.9383 98.7309 15.6285 100.135 15.6285C101.767 15.6285 103.203 15.9796 104.442 16.6819C105.702 17.3841 106.693 18.3652 107.416 19.6251C108.159 20.885 108.531 22.3721 108.531 24.0863C108.531 25.8006 108.159 27.298 107.416 28.5786C106.693 29.8385 105.702 30.8196 104.442 31.5218C103.203 32.224 101.767 32.5751 100.135 32.5751ZM90.965 38.3686V15.8144H94.6517V19.718L94.5278 24.1173L94.8376 28.5166V38.3686H90.965ZM99.7017 29.2602C100.631 29.2602 101.457 29.0536 102.18 28.6406C102.924 28.2275 103.512 27.6285 103.946 26.8437C104.38 26.0588 104.597 25.1397 104.597 24.0863C104.597 23.0123 104.38 22.0932 103.946 21.329C103.512 20.5442 102.924 19.9452 102.18 19.5321C101.457 19.1191 100.631 18.9125 99.7017 18.9125C98.7722 18.9125 97.9357 19.1191 97.1922 19.5321C96.4486 19.9452 95.86 20.5442 95.4263 21.329C94.9925 22.0932 94.7757 23.0123 94.7757 24.0863C94.7757 25.1397 94.9925 26.0588 95.4263 26.8437C95.86 27.6285 96.4486 28.2275 97.1922 28.6406C97.9357 29.0536 98.7722 29.2602 99.7017 29.2602ZM113.625 32.3583V15.8144H117.683L124.344 27.5562H122.733L129.735 15.8144H133.36L133.391 32.3583H129.89V19.9659L130.509 20.3686L124.313 30.6233H122.64L116.413 20.0898L117.157 19.9039V32.3583H113.625ZM149.862 32.3583V29.0123L149.645 28.2998V22.4444C149.645 21.3084 149.304 20.4306 148.623 19.811C147.941 19.1707 146.909 18.8506 145.525 18.8506C144.595 18.8506 143.676 18.9951 142.767 19.2843C141.879 19.5734 141.125 19.9762 140.506 20.4925L138.988 17.6733C139.876 16.9917 140.929 16.4857 142.148 16.1552C143.387 15.8041 144.668 15.6285 145.989 15.6285C148.385 15.6285 150.234 16.2068 151.535 17.3635C152.857 18.4994 153.518 20.2654 153.518 22.6612V32.3583H149.862ZM144.657 32.5751C143.418 32.5751 142.334 32.3686 141.404 31.9555C140.475 31.5218 139.752 30.9331 139.236 30.1896C138.74 29.4254 138.492 28.5683 138.492 27.6182C138.492 26.6888 138.709 25.8523 139.143 25.1087C139.597 24.3652 140.33 23.7765 141.342 23.3428C142.354 22.9091 143.697 22.6922 145.37 22.6922H150.172V25.2636H145.649C144.327 25.2636 143.439 25.4805 142.984 25.9142C142.53 26.3273 142.303 26.8437 142.303 27.4633C142.303 28.1655 142.582 28.7232 143.139 29.1363C143.697 29.5493 144.471 29.7559 145.463 29.7559C146.413 29.7559 147.26 29.539 148.003 29.1053C148.767 28.6715 149.315 28.0313 149.645 27.1844L150.296 29.508C149.924 30.4788 149.253 31.2326 148.282 31.7696C147.332 32.3066 146.124 32.5751 144.657 32.5751ZM159.549 32.3583V15.8144H163.422V22.5373H171.756V15.8144H175.628V32.3583H171.756V25.8213H163.422V32.3583H159.549Z" fill="white"/>
<path d="M40.2728 19.6491L32.3024 6.00878C31.5054 4.60527 29.9556 3.77193 28.3615 3.77193H23.3135C23.8006 4.56141 24.1991 5.39473 24.5091 6.27192L24.5977 6.49122H28.3615C28.9814 6.49122 29.6013 6.8421 29.9113 7.36841L37.8817 21.0088C38.1917 21.5351 38.1917 22.2368 37.8817 22.7632L34.5164 28.5526C34.7378 25.4824 33.8522 22.6316 32.081 20.0439C29.7784 16.6667 28.8486 13.0702 29.9998 9.03508C29.9998 8.99122 29.9998 8.90351 29.9998 8.77193C27.5644 9.64912 25.8818 11.3158 24.9519 13.5965C24.819 12.1491 24.7748 10.6579 24.5534 9.16668C24.4205 8.24562 24.1991 7.32455 23.8892 6.49122C23.5349 5.52631 23.0921 4.60526 22.5165 3.72807C22.118 3.11403 21.6309 2.54386 21.0995 1.97368C20.3467 1.18421 19.5054 0.570175 18.4427 0C18.487 0.219298 18.5313 0.35088 18.5313 0.482459C18.7527 1.40351 18.8412 2.36842 18.6641 3.28947C18.6198 3.42105 18.6198 3.59649 18.5755 3.72807C18.3541 4.69298 17.9556 5.61403 17.4685 6.49122C17.2471 6.8421 17.0257 7.19299 16.8043 7.54386C15.6088 9.29825 14.3247 11.0088 13.1734 12.807C11.4464 15.4825 10.4723 18.3772 10.6494 21.5789C10.7822 23.6842 11.3136 25.7017 12.1106 27.6754C12.1549 27.807 12.2435 27.9824 12.2878 28.114C12.2435 28.1579 12.1992 28.1579 12.1106 28.2017C9.09958 26.0965 8.39109 22.8509 7.81545 19.4298C7.72689 19.6491 7.63834 19.8246 7.54978 19.9561C6.8413 21.5789 6.39849 23.2895 6.35421 25.0877C6.30993 26.5789 6.44278 27.9386 6.75274 29.2982L2.94463 22.7632C2.63467 22.2368 2.63467 21.5351 2.94463 21.0088L10.9151 7.36841C11.225 6.8421 11.8007 6.49122 12.4649 6.49122H16.6272L16.8486 6.14035C17.3357 5.30702 17.6457 4.51754 17.8671 3.72807H12.5092C10.8708 3.72807 9.36526 4.60527 8.56822 5.96491L0.597783 19.6053C-0.199261 21.0088 -0.199261 22.7193 0.597783 24.1228L8.56822 37.7631C9.36526 39.1666 10.9151 40 12.5092 40H28.4057C30.0441 40 31.5496 39.1228 32.3467 37.7631L40.3171 24.1228C41.0699 22.7632 41.0699 21.0526 40.2728 19.6491ZM26.3689 18.2018C26.546 17.5439 26.8559 16.886 27.0773 16.2719C27.1216 16.2719 27.1659 16.2719 27.2102 16.2719C27.2544 16.6228 27.2987 16.9298 27.3873 17.2807C27.653 18.9035 28.45 20.3509 29.3799 21.7105C30.177 22.8947 30.8854 24.1228 31.2397 25.5263C31.6825 27.4123 31.4168 29.2544 30.6198 31.0088C30.6198 31.0526 30.5755 31.0526 30.4426 31.1842C30.6198 29.2544 29.9556 27.7193 28.8043 26.3596C28.4058 25.921 28.0515 25.4386 27.653 25C26.0146 22.9825 25.6604 20.7018 26.3689 18.2018ZM20.8338 37.3245C21.1881 36.5351 21.1881 35.614 20.8338 34.5614C20.4796 33.5965 19.9039 32.6754 19.3283 31.8421C17.7785 29.6052 16.4501 27.2807 15.7416 24.6052C14.7232 20.7456 15.2545 17.193 17.8671 14.0351C18.3984 13.3772 19.0626 12.807 19.6383 12.2369C19.6825 12.2807 19.7268 12.2807 19.7711 12.3245C19.6825 12.5877 19.5497 12.8509 19.4611 13.1579C18.7084 15.2193 18.3984 17.3246 19.0626 19.4298C19.594 21.2281 20.701 22.7193 21.9851 24.079C23.3578 25.5263 24.7748 26.9298 26.1475 28.421C27.2102 29.5614 27.9629 30.921 28.1401 32.5C28.2729 33.6403 28.0072 34.693 27.5201 35.8772C26.5017 32.7193 24.819 30.2193 21.6309 29.1228C21.6752 29.2983 21.7637 29.4737 21.8965 29.6053C22.8707 31.0088 23.712 32.5 24.0663 34.2105C24.332 35.307 24.2877 36.3596 23.9777 37.3245H20.8338Z" fill="white"/>
</svg>
