<svg width="276" height="86" viewBox="0 0 276 86" fill="none" xmlns="http://www.w3.org/2000/svg">
<g clip-path="url(#clip0_437_428)">
<path d="M0 -20H276V106H0V-20Z" fill="#929292"/>
<path d="M249.929 -28.8334C210.829 -28.8334 179.167 2.89996 179.167 42C179.167 81.1 210.829 112.833 249.929 112.833C289.1 112.833 320.833 81.1 320.833 42C320.833 2.89996 289.1 -28.8334 249.929 -28.8334ZM250 98.6666C218.692 98.6666 193.333 73.3083 193.333 42C193.333 10.6916 218.692 -14.6667 250 -14.6667C281.308 -14.6667 306.667 10.6916 306.667 42C306.667 73.3083 281.308 98.6666 250 98.6666Z" fill="#767676"/>
<path d="M253.542 6.58337H242.917V49.0834L280.104 71.3959L285.417 62.6834L253.542 43.7709V6.58337Z" fill="#767676"/>
</g>
<defs>
<clipPath id="clip0_437_428">
<rect width="276" height="126" fill="white" transform="translate(0 -20)"/>
</clipPath>
</defs>
</svg>
