<svg xmlns="http://www.w3.org/2000/svg" width="30" height="31" viewBox="0 0 30 31" fill="none">
    <circle cx="15" cy="15.6002" r="15" fill="#D42216"/>
    <path d="M15 9.60016C13.6744 9.60163 12.4035 10.0988 11.4662 10.9826C10.5289 11.8664 10.0016 13.0646 10 14.3144C9.99842 15.3358 10.3523 16.3295 11.0073 17.143C11.0073 17.143 11.1436 17.3123 11.1659 17.3367L15 21.6002L18.8359 17.3346C18.8559 17.3119 18.9927 17.143 18.9927 17.143L18.9932 17.1417C19.6479 16.3286 20.0015 15.3354 20 14.3144C19.9984 13.0646 19.4711 11.8664 18.5338 10.9826C17.5965 10.0988 16.3256 9.60163 15 9.60016ZM15 16.0287C14.6404 16.0287 14.2889 15.9282 13.9899 15.7398C13.6909 15.5515 13.4578 15.2837 13.3202 14.9705C13.1826 14.6572 13.1466 14.3125 13.2168 13.98C13.2869 13.6475 13.4601 13.342 13.7144 13.1023C13.9686 12.8625 14.2926 12.6992 14.6453 12.6331C14.998 12.567 15.3636 12.6009 15.6958 12.7307C16.028 12.8604 16.312 13.0801 16.5118 13.362C16.7115 13.644 16.8182 13.9754 16.8182 14.3144C16.8176 14.7689 16.6258 15.2046 16.285 15.526C15.9441 15.8474 15.482 16.0282 15 16.0287Z" fill="white"/>
</svg>