<svg width="70" height="13" viewBox="0 0 70 13" fill="none" xmlns="http://www.w3.org/2000/svg">
<path d="M0 11.9965H2.67372L2.639 7.27278L7.98644 11.9965H11.3894L5.62523 6.01311L11.0595 0.394329H7.74337L2.639 5.05179L2.67372 0.394329H0V11.9965Z" fill="#52AEFF"/>
<path d="M18.6734 12.1954C22.4236 12.1954 25.1494 9.49378 25.1494 6.19543V6.16228C25.1494 2.86394 22.4583 0.195435 18.7082 0.195435C14.958 0.195435 12.2322 2.89709 12.2322 6.19543V6.22858C12.2322 9.52693 14.9233 12.1954 18.6734 12.1954ZM18.7082 9.84184C16.5553 9.84184 15.0275 8.18438 15.0275 6.19543V6.16228C15.0275 4.17333 16.5206 2.54903 18.6734 2.54903C20.8263 2.54903 22.3542 4.20648 22.3542 6.19543V6.22858C22.3542 8.21753 20.861 9.84184 18.7082 9.84184Z" fill="#52AEFF"/>
<path d="M26.8414 9.6761V11.9965H29.3415H37.9182H40.4183V9.6761H39.1683L35.0361 0.311456H32.2235L28.0567 9.6761H26.8414ZM33.5951 3.12914L36.3904 9.77555H30.7999L33.5951 3.12914Z" fill="#52AEFF"/>
<path d="M54.0612 11.9965V0.394329H51.509L45.9358 7.73687V0.394329H43.2621V11.9965H45.6233L51.3874 4.42195V11.9965H54.0612Z" fill="#52AEFF"/>
<path d="M57.8467 11.9965H60.4684V4.47168L63.8539 8.79606H63.9234L67.3436 4.42195V11.9965H70V0.394329H67.1179L63.9234 4.71871L60.7288 0.394329H57.8467V11.9965Z" fill="#52AEFF"/>
</svg>
