<svg width="28" height="19" viewBox="0 0 28 19" fill="none" xmlns="http://www.w3.org/2000/svg">
<path fill-rule="evenodd" clip-rule="evenodd" d="M0 1.35714C0 0.607614 0.626801 0 1.4 0H26.6C27.3732 0 28 0.607614 28 1.35714C28 2.10667 27.3732 2.71429 26.6 2.71429H1.4C0.626801 2.71429 0 2.10667 0 1.35714ZM0 9.5C0 8.75047 0.626801 8.14286 1.4 8.14286H26.6C27.3732 8.14286 28 8.75047 28 9.5C28 10.2495 27.3732 10.8571 26.6 10.8571H1.4C0.626801 10.8571 0 10.2495 0 9.5ZM0 17.6429C0 16.8933 0.626801 16.2857 1.4 16.2857H26.6C27.3732 16.2857 28 16.8933 28 17.6429C28 18.3924 27.3732 19 26.6 19H1.4C0.626801 19 0 18.3924 0 17.6429Z" fill="#282828"/>
</svg>
