<svg width="28" height="28" viewBox="0 0 28 28" fill="none" xmlns="http://www.w3.org/2000/svg">
<circle cx="14" cy="14" r="14" fill="#D42216"/>
<path d="M12.72 21.3C12.36 21.3 11.9867 21.2733 11.6 21.22C11.2267 21.18 10.8667 21.12 10.52 21.04C10.1867 20.9733 9.88 20.9 9.6 20.82C9.32 20.7267 9.10667 20.64 8.96 20.56L9.44 18.5C9.72 18.6333 10.1267 18.7867 10.66 18.96C11.1933 19.12 11.8533 19.2 12.64 19.2C13.6933 19.2 14.4533 19 14.92 18.6C15.3867 18.1867 15.62 17.64 15.62 16.96C15.62 16.52 15.5267 16.1533 15.34 15.86C15.1667 15.5667 14.92 15.3333 14.6 15.16C14.2933 14.9733 13.9333 14.8467 13.52 14.78C13.12 14.7 12.6933 14.66 12.24 14.66H11.42V12.7H12.42C12.7267 12.7 13.0333 12.6733 13.34 12.62C13.66 12.5533 13.9467 12.4467 14.2 12.3C14.4533 12.14 14.66 11.9333 14.82 11.68C14.98 11.4267 15.06 11.1 15.06 10.7C15.06 10.38 15 10.1067 14.88 9.88C14.76 9.65333 14.6 9.46667 14.4 9.32C14.2133 9.17333 13.9933 9.06667 13.74 9C13.4867 8.93333 13.22 8.9 12.94 8.9C12.34 8.9 11.8067 8.99333 11.34 9.18C10.8733 9.35333 10.46 9.55333 10.1 9.78L9.22 7.98C9.40667 7.86 9.63333 7.73333 9.9 7.6C10.1667 7.46667 10.46 7.34 10.78 7.22C11.1133 7.1 11.4667 7.00667 11.84 6.94C12.2133 6.86 12.6067 6.82 13.02 6.82C13.7933 6.82 14.46 6.91333 15.02 7.1C15.58 7.28667 16.04 7.55333 16.4 7.9C16.7733 8.23333 17.0467 8.63333 17.22 9.1C17.4067 9.55333 17.5 10.0533 17.5 10.6C17.5 11.24 17.32 11.8133 16.96 12.32C16.6133 12.8267 16.16 13.2133 15.6 13.48C16.32 13.7333 16.9133 14.1533 17.38 14.74C17.86 15.3267 18.1 16.08 18.1 17C18.1 17.6133 17.9933 18.1867 17.78 18.72C17.5667 19.24 17.24 19.6933 16.8 20.08C16.36 20.4533 15.8 20.7533 15.12 20.98C14.4533 21.1933 13.6533 21.3 12.72 21.3Z" fill="white"/>
</svg>
