<svg width="21" height="25" viewBox="0 0 21 25" fill="none" xmlns="http://www.w3.org/2000/svg">
<path d="M5.57266 0.13307C6.32531 -0.0731288 7.13298 -0.0388722 7.86122 0.230137C8.58946 0.499146 9.19434 0.986678 9.57516 1.61158L9.70244 1.84445L10.8411 4.14348C11.1867 4.84129 11.2988 5.61601 11.1637 6.3713C11.0285 7.12658 10.6519 7.82909 10.0808 8.39145L9.85208 8.59775L8.05809 10.1185C7.73473 10.3966 7.97725 11.4735 9.14687 13.3146C10.1995 14.9713 11.0561 15.7449 11.4775 15.7871H11.5515L11.6426 15.7715L15.1687 14.7915C15.6426 14.6595 16.1483 14.6542 16.6253 14.7765C17.1024 14.8987 17.5306 15.1432 17.8588 15.4808L18.0153 15.6605L20.3494 18.5988C20.8068 19.1747 21.0348 19.875 20.9957 20.5843C20.9566 21.2937 20.6528 21.9698 20.1344 22.5013L19.9245 22.6983L18.9923 23.5016C18.1551 24.222 17.108 24.7088 15.9752 24.9041C14.8424 25.0994 13.6718 24.9951 12.6024 24.6034C9.27415 23.3844 6.25035 20.5993 3.50347 16.2763C0.751427 11.9424 -0.39239 8.16483 0.118458 4.92962C0.273042 3.95166 0.716235 3.03 1.40097 2.26252C2.0857 1.49504 2.98641 0.910397 4.00743 0.570682L4.3394 0.470657L5.57266 0.13307Z" fill="#D42216"/>
</svg>
