<svg width="28" height="28" viewBox="0 0 28 28" fill="none" xmlns="http://www.w3.org/2000/svg">
<path d="M28 14C28 21.732 21.732 28 14 28C6.26801 28 0 21.732 0 14C0 6.26801 6.26801 0 14 0C21.732 0 28 6.26801 28 14Z" fill="#D42216"/>
<path fill-rule="evenodd" clip-rule="evenodd" d="M21.0432 8.83267C21.3591 9.16071 21.3591 9.69257 21.0432 10.0206L12.1454 19.2606C11.8295 19.5887 11.3174 19.5887 11.0015 19.2606L6.95705 15.0606C6.64116 14.7326 6.64116 14.2007 6.95705 13.8727C7.27294 13.5446 7.7851 13.5446 8.10099 13.8727L11.5735 17.4787L19.8993 8.83267C20.2152 8.50463 20.7273 8.50463 21.0432 8.83267Z" fill="white"/>
</svg>
