<svg width="30" height="30" viewBox="0 0 30 30" fill="none" xmlns="http://www.w3.org/2000/svg">
<path d="M30 15C30 23.2843 23.2843 30 15 30C6.71573 30 0 23.2843 0 15C0 6.71573 6.71573 0 15 0C23.2843 0 30 6.71573 30 15Z" fill="#FA3D3D"/>
<path d="M17 19C17 20.1046 16.1046 21 15 21C13.8954 21 13 20.1046 13 19C13 17.8954 13.8954 17 15 17C16.1046 17 17 17.8954 17 19Z" fill="white"/>
<path d="M13 10C13 9.44772 13.4477 9 14 9H16C16.5523 9 17 9.44772 17 10V15C17 15.5523 16.5523 16 16 16H14C13.4477 16 13 15.5523 13 15V10Z" fill="white"/>
</svg>
